%FSLAX23Y23*%
%MOIN*%
G04 EasyPC Gerber Version 15.0.4 Build 3016 *
%ADD22C,0.00100*%
%ADD26C,0.00128*%
%ADD25C,0.00200*%
%ADD20C,0.00320*%
%ADD21C,0.00400*%
%ADD70C,0.00500*%
%ADD24C,0.00600*%
%ADD23C,0.00800*%
%ADD71C,0.01000*%
X0Y0D02*
D02*
D70*
X255Y736D02*
Y496D01*
X525Y416D02*
Y86D01*
X255*
Y416*
X525Y736D02*
Y466D01*
Y996D02*
Y1106D01*
X255*
Y996*
D02*
D71*
X862Y181D02*
X822D01*
X842Y161*
X862Y181*
X962Y161D02*
X942Y181D01*
X922Y161*
X962*
X1042Y181D02*
X1022Y161D01*
X1062*
X1042Y181*
D02*
D20*
X97Y191D02*
X67D01*
Y208*
X70Y213*
X75Y216*
X80Y213*
X82Y208*
Y191*
Y208D02*
X97Y216D01*
X95Y251D02*
X97Y248D01*
Y243*
Y238*
X95Y233*
X90Y231*
X82*
X80Y233*
X77Y238*
Y243*
X80Y248*
X82Y251*
X85*
X87Y248*
X90Y243*
Y238*
X87Y233*
X85Y231*
Y291D02*
X80Y288D01*
X77Y283*
Y278*
X80Y273*
X85Y271*
X90*
X95Y273*
X97Y278*
Y283*
X95Y288*
X90Y291*
X97D02*
X67D01*
X87Y351D02*
Y371D01*
X160Y203D02*
X145D01*
X130Y191*
X145Y203D02*
X130Y216D01*
X157Y251D02*
X160Y248D01*
Y243*
Y238*
X157Y233*
X152Y231*
X145*
X142Y233*
X140Y238*
Y243*
X142Y248*
X145Y251*
X147*
X150Y248*
X152Y243*
Y238*
X150Y233*
X147Y231*
X160Y283D02*
Y281D01*
X130*
X160Y323D02*
Y321D01*
X130*
X152Y351D02*
X157Y353D01*
X160Y358*
Y363*
X157Y368*
X152Y371*
X147*
X142Y368*
X140Y363*
Y358*
X142Y353*
X147Y351*
X152*
X140Y391D02*
X157D01*
X160Y393*
Y398*
X157Y401*
X150*
X157D02*
X160Y403D01*
Y408*
X157Y411*
X140*
X150Y471D02*
Y491D01*
X160Y481D02*
X140D01*
X642Y178D02*
Y186D01*
X644*
X649Y183*
X652Y181*
X655Y176*
Y171*
X652Y166*
X649Y163*
X644Y161*
X635*
X630Y163*
X627Y166*
X625Y171*
Y176*
X627Y181*
X630Y183*
X635Y186*
X655Y201D02*
X625D01*
X655Y226*
X625*
X655Y241D02*
X625D01*
Y256*
X627Y261*
X630Y263*
X635Y266*
X644*
X649Y263*
X652Y261*
X655Y256*
Y241*
X725Y161D02*
X755Y173D01*
X725Y186*
X750Y226D02*
X752Y223D01*
X755Y218*
Y211*
X752Y206*
X750Y203*
X745Y201*
X735*
X730Y203*
X727Y206*
X725Y211*
Y218*
X727Y223*
X730Y226*
X750Y266D02*
X752Y263D01*
X755Y258*
Y251*
X752Y246*
X750Y243*
X745Y241*
X735*
X730Y243*
X727Y246*
X725Y251*
Y258*
X727Y263*
X730Y266*
X855Y201D02*
X825D01*
Y216*
X827Y221*
X830Y223*
X835Y226*
X845*
X850Y223*
X852Y221*
X855Y216*
Y201*
X845Y241D02*
X835D01*
X830Y243*
X827Y246*
X825Y251*
Y256*
X827Y261*
X830Y263*
X835Y266*
X845*
X850Y263*
X852Y261*
X855Y256*
Y251*
X852Y246*
X850Y243*
X845Y241*
X950Y226D02*
X952Y223D01*
X955Y218*
Y211*
X952Y206*
X950Y203*
X945Y201*
X935*
X930Y203*
X927Y206*
X924Y211*
Y218*
X927Y223*
X930Y226*
X947Y241D02*
X952Y243D01*
X955Y248*
Y258*
X952Y263*
X947Y266*
X942Y263*
X939Y258*
Y248*
X937Y243*
X932Y241*
X927Y243*
X924Y248*
Y258*
X927Y263*
X932Y266*
X1050Y226D02*
X1052Y223D01*
X1055Y218*
Y211*
X1052Y206*
X1050Y203*
X1045Y201*
X1035*
X1030Y203*
X1027Y206*
X1025Y211*
Y218*
X1027Y223*
X1030Y226*
X1025Y241D02*
X1055D01*
Y266*
Y281D02*
X1025D01*
X1040D02*
Y288D01*
X1025Y306*
X1040Y288D02*
X1055Y306D01*
X1200Y166D02*
X1170D01*
X1185D02*
Y191D01*
X1200D02*
X1170D01*
X1192Y206D02*
X1197Y208D01*
X1200Y213*
Y218*
X1197Y223*
X1192Y226*
X1187*
X1182Y223*
X1180Y218*
Y213*
X1182Y208*
X1187Y206*
X1192*
Y246D02*
X1197Y248D01*
X1200Y253*
Y258*
X1197Y263*
X1192Y266*
X1187*
X1182Y263*
X1180Y258*
Y253*
X1182Y248*
X1187Y246*
X1200D02*
X1170D01*
X1192Y286D02*
X1197Y288D01*
X1200Y293*
Y298*
X1197Y303*
X1192Y306*
X1187*
X1182Y303*
X1180Y298*
Y293*
X1182Y288*
X1187Y286*
X1200D02*
X1170D01*
X1180Y326D02*
X1190Y328D01*
X1195Y333*
Y338*
X1190Y343*
X1180Y346*
X1190Y343D02*
X1200Y341D01*
X1205Y338*
X1207Y333*
X1205Y328*
X1192Y366D02*
X1197Y368D01*
X1200Y373*
Y378*
X1197Y383*
X1192Y386*
X1187*
X1182Y383*
X1180Y378*
Y373*
X1182Y368*
X1187Y366*
X1200D02*
X1170D01*
X1192Y406D02*
X1197Y408D01*
X1200Y413*
Y418*
X1197Y423*
X1192Y426*
X1187*
X1182Y423*
X1180Y418*
Y413*
X1182Y408*
X1187Y406*
X1192*
X1180Y451D02*
Y461D01*
X1175Y456D02*
X1197D01*
X1200Y458*
Y461*
X1197Y463*
X1200Y496D02*
X1180D01*
X1172D02*
X1182Y546*
X1180Y541D01*
Y533*
X1182Y528*
X1187Y526*
X1192*
X1197Y528*
X1200Y533*
Y541*
X1197Y546*
Y566D02*
X1200Y571D01*
Y581*
X1197Y586*
X1192*
X1190Y581*
Y571*
X1187Y566*
X1182*
X1180Y571*
Y581*
X1182Y586*
X1170Y646D02*
X1200Y671D01*
X1197Y688D02*
X1200Y693D01*
Y698*
X1197Y703*
X1192Y706*
X1177*
X1172Y703*
X1170Y698*
Y693*
X1172Y688*
X1177Y686*
X1192*
X1197Y688*
X1172Y703*
X1200Y726D02*
X1170Y751D01*
X1265Y166D02*
X1235D01*
X1250Y178*
X1235Y191*
X1265*
Y206D02*
X1235Y218D01*
X1265Y231*
X1252Y211D02*
Y226D01*
X1265Y246D02*
X1235Y271D01*
Y246D02*
X1265Y271D01*
X1257Y286D02*
X1252Y288D01*
X1250Y293*
Y298*
X1252Y303*
X1257Y306*
X1262Y303*
X1265Y298*
Y293*
X1262Y288*
X1257Y286*
X1250*
X1242Y288*
X1237Y293*
X1235Y298*
X1257Y326D02*
X1252Y328D01*
X1250Y333*
Y338*
X1252Y343*
X1257Y346*
X1262Y343*
X1265Y338*
Y333*
X1262Y328*
X1257Y326*
X1250*
X1242Y328*
X1237Y333*
X1235Y338*
X1265Y366D02*
X1235Y386D01*
Y366*
X1262Y406D02*
X1265Y411D01*
Y418*
X1262Y423*
X1257Y426*
X1255*
X1250Y423*
X1247Y418*
Y406*
X1235*
Y426*
X1250Y503D02*
X1252Y508D01*
X1257Y511*
X1262Y508*
X1265Y503*
Y486*
X1235*
Y503*
X1237Y508*
X1242Y511*
X1247Y508*
X1250Y503*
Y486*
X1265Y526D02*
X1245D01*
X1252D02*
X1247Y528D01*
X1245Y533*
Y538*
X1247Y543*
X1262Y586D02*
X1265Y583D01*
Y578*
Y573*
X1262Y568*
X1257Y566*
X1250*
X1247Y568*
X1245Y573*
Y578*
X1247Y583*
X1250Y586*
X1252*
X1255Y583*
X1257Y578*
Y573*
X1255Y568*
X1252Y566*
X1247Y606D02*
X1245Y611D01*
Y618*
X1247Y623*
X1252Y626*
X1260*
X1262Y623*
X1265Y618*
Y613*
X1262Y608*
X1260Y606*
X1257*
X1255Y608*
X1252Y613*
Y618*
X1255Y623*
X1257Y626*
X1260D02*
X1265D01*
Y646D02*
X1235D01*
X1255D02*
Y653D01*
X1245Y666*
X1255Y653D02*
X1265Y666D01*
X1257Y686D02*
X1262Y688D01*
X1265Y693*
Y698*
X1262Y703*
X1257Y706*
X1252*
X1247Y703*
X1245Y698*
Y693*
X1247Y688*
X1252Y686*
X1257*
X1245Y726D02*
X1257D01*
X1262Y728*
X1265Y733*
Y738*
X1262Y743*
X1257Y746*
X1245D02*
X1265D01*
X1245Y771D02*
Y781D01*
X1240Y776D02*
X1262D01*
X1265Y778*
Y781*
X1262Y783*
X1235Y846D02*
X1265Y858D01*
X1235Y871*
X1265Y891D02*
Y901D01*
Y896D02*
X1235D01*
X1240Y891*
X1265Y928D02*
X1262Y931D01*
X1260Y928*
X1262Y926*
X1265Y928*
X1262Y968D02*
X1265Y973D01*
Y978*
X1262Y983*
X1257Y986*
X1242*
X1237Y983*
X1235Y978*
Y973*
X1237Y968*
X1242Y966*
X1257*
X1262Y968*
X1237Y983*
D02*
D21*
X483Y156D02*
X445D01*
Y141D02*
Y172D01*
X470Y191D02*
Y216D01*
X483Y406D02*
X445D01*
Y391D02*
Y422D01*
X470Y441D02*
Y466D01*
X483Y453D02*
X458D01*
D02*
D22*
X372Y1073D02*
X374Y1072D01*
X377Y1070*
X380Y1072*
X381Y1073*
Y1089*
X385*
X381D02*
X375D01*
X400Y1070D02*
X406D01*
X403D02*
Y1089D01*
X400Y1086*
X579Y61D02*
X581Y62D01*
X582Y65*
X581Y68*
X579Y70*
X564*
Y73*
Y70D02*
Y64D01*
X582Y86D02*
X564D01*
Y97*
X565Y100*
X568Y101*
X571Y100*
X573Y97*
Y86*
X582Y123D02*
Y111D01*
X571Y122*
X568Y123*
X565Y122*
X564Y118*
Y114*
X565Y111*
X632Y81D02*
X652D01*
Y101*
X632*
Y81*
G36*
X652*
Y101*
X632*
Y81*
G37*
X732D02*
X752D01*
Y101*
X732*
Y81*
G36*
X752*
Y101*
X732*
Y81*
G37*
X745Y376D02*
Y356D01*
X790*
Y376*
X745*
G36*
Y356*
X790*
Y376*
X745*
G37*
Y476D02*
Y456D01*
X790*
Y476*
X745*
G36*
Y456*
X790*
Y476*
X745*
G37*
Y526D02*
Y506D01*
X790*
Y526*
X745*
G36*
Y506*
X790*
Y526*
X745*
G37*
X746Y426D02*
Y406D01*
X791*
Y426*
X746*
G36*
Y406*
X791*
Y426*
X746*
G37*
X817Y489D02*
Y475D01*
X819Y472*
X822Y470*
X828*
X831Y472*
X833Y475*
Y489*
X845Y470D02*
X851D01*
X848D02*
Y489D01*
X845Y486*
X832Y81D02*
X852D01*
Y101*
X832*
Y81*
G36*
X852*
Y101*
X832*
Y81*
G37*
X932D02*
X952D01*
Y101*
X932*
Y81*
G36*
X952*
Y101*
X932*
Y81*
G37*
X944Y376D02*
Y356D01*
X989*
Y376*
X944*
G36*
Y356*
X989*
Y376*
X944*
G37*
Y426D02*
Y406D01*
X989*
Y426*
X944*
G36*
Y406*
X989*
Y426*
X944*
G37*
Y476D02*
Y456D01*
X989*
Y476*
X944*
G36*
Y456*
X989*
Y476*
X944*
G37*
Y526D02*
Y506D01*
X989*
Y526*
X944*
G36*
Y506*
X989*
Y526*
X944*
G37*
X991Y878D02*
G75*
G03X1005Y885I-36J88D01*
G01*
X1039Y857*
X1063Y881*
X1035Y915*
G75*
G03X1047Y944I-80J50*
G01*
X1091Y949*
Y982*
X1047Y987*
G75*
G03X1035Y1016I-92J-21*
G01*
X1063Y1050*
X1039Y1074*
X1005Y1046*
G75*
G03X976Y1058I-50J-80*
G01*
X971Y1102*
X938*
X933Y1058*
G75*
G03X904Y1046I21J-92*
G01*
X870Y1074*
X846Y1050*
X874Y1016*
G75*
G03X862Y987I80J-50*
G01*
X818Y982*
Y949*
X862Y944*
G75*
G03X874Y915I92J21*
G01*
X846Y881*
X870Y857*
X904Y885*
G75*
G03X918Y878I50J80*
G01*
X938Y926*
G75*
G02X911Y966I16J40*
G01*
G75*
G02X971Y926I43*
G01*
X991Y878*
G36*
G75*
G03X1005Y885I-36J88*
G01*
X1039Y857*
X1063Y881*
X1035Y915*
G75*
G03X1047Y944I-80J50*
G01*
X1091Y949*
Y982*
X1047Y987*
G75*
G03X1035Y1016I-92J-21*
G01*
X1063Y1050*
X1039Y1074*
X1005Y1046*
G75*
G03X976Y1058I-50J-80*
G01*
X971Y1102*
X938*
X933Y1058*
G75*
G03X904Y1046I21J-92*
G01*
X870Y1074*
X846Y1050*
X874Y1016*
G75*
G03X862Y987I80J-50*
G01*
X818Y982*
Y949*
X862Y944*
G75*
G03X874Y915I92J21*
G01*
X846Y881*
X870Y857*
X904Y885*
G75*
G03X918Y878I50J80*
G01*
X938Y926*
G75*
G02X911Y966I16J40*
G01*
G75*
G02X971Y926I43*
G01*
X991Y878*
G37*
X1032Y81D02*
X1052D01*
Y101*
X1032*
Y81*
G36*
X1052*
Y101*
X1032*
Y81*
G37*
D02*
D23*
X667Y41D02*
X617D01*
X592Y66*
Y116*
X617Y141*
X667*
X692Y116*
X717Y141*
X767*
X792Y116*
X817Y141*
X867*
X892Y116*
X917Y141*
X967*
X992Y116*
X1017Y141*
X1067*
X1092Y116*
Y66*
X1067Y41*
X1017*
X992Y66*
X967Y41*
X917*
X892Y66*
X867Y41*
X817*
X792Y66*
X767Y41*
X717*
X692Y66*
X667Y41*
D02*
D24*
X805Y541D02*
X929D01*
G75*
G02X944Y526J-15*
G01*
Y356*
G75*
G02X929Y341I-15*
G01*
X805*
G75*
G02X790Y356J15*
G01*
Y526*
G75*
G02X805Y541I15*
G01*
X847D02*
G75*
G03X887I20D01*
G01*
X879Y567D02*
X855D01*
X879Y614D02*
X855D01*
D02*
D25*
X804Y541D02*
Y341D01*
D02*
D26*
X867Y626D02*
X866Y625D01*
X864Y624*
X861*
X859Y625*
X858Y626*
X857Y628*
Y632*
X858Y634*
X859Y635*
X861Y636*
X864*
X866Y635*
X867Y634*
X875Y624D02*
X879D01*
X877D02*
Y636D01*
X875Y634*
X0Y0D02*
M02*
